<svg width="57" height="63" viewBox="0 0 57 63" fill="none" xmlns="http://www.w3.org/2000/svg">
<path d="M22.85 41.7896H24.555V27.6496H22.8304L19.0676 30.3541V32.2159L22.8108 29.5212H22.85V41.7896ZM32.7549 42.0247C36.0474 42.0247 37.9484 39.1732 37.9484 34.7049C37.9484 30.2659 36.0376 27.4144 32.7549 27.4144C29.4722 27.4144 27.5418 30.2855 27.5418 34.7147C27.5418 39.183 29.4526 42.0247 32.7549 42.0247ZM32.7549 40.4863C30.5403 40.4863 29.3155 38.2325 29.3155 34.7049C29.3155 31.2556 30.5697 28.9626 32.7549 28.9626C34.9401 28.9626 36.1748 31.236 36.1748 34.7147C36.1748 38.2423 34.9597 40.4863 32.7549 40.4863Z" fill="white"/>
<g clip-path="url(#clip0_13_1110)">
<path d="M25.7768 0.765886C25.8844 0.742498 25.9886 0.763199 26.0894 0.82799L26.8452 1.31392C26.9459 1.37871 27.008 1.46491 27.0314 1.57253C27.0548 1.68015 27.0341 1.78434 26.9693 1.88511L23.1499 7.82564L29.0904 11.645C29.1912 11.7098 29.2533 11.796 29.2767 11.9037C29.3001 12.0113 29.2793 12.1155 29.2146 12.2162L28.7286 12.972C28.6638 13.0728 28.5776 13.1349 28.47 13.1583C28.3624 13.1817 28.2582 13.161 28.1574 13.0962L21.1135 8.5673C21.0127 8.50251 20.9506 8.4163 20.9272 8.30869C20.9038 8.20107 20.9245 8.09688 20.9893 7.99611L25.5182 0.952126C25.583 0.851354 25.6692 0.789274 25.7768 0.765886ZM21.0086 1.80216C21.1162 1.77877 21.2204 1.79947 21.3212 1.86426L22.077 2.35019C22.1777 2.41498 22.2398 2.50118 22.2632 2.6088C22.2866 2.71641 22.2659 2.82061 22.2011 2.92138L18.3817 8.8619L24.3222 12.6813C24.423 12.7461 24.4851 12.8323 24.5085 12.9399C24.5318 13.0475 24.5111 13.1517 24.4463 13.2525L23.9604 14.0083C23.8956 14.1091 23.8094 14.1712 23.7018 14.1945C23.5942 14.2179 23.49 14.1972 23.3892 14.1324L16.3452 9.60357C16.2445 9.53878 16.1824 9.45257 16.159 9.34496C16.1356 9.23734 16.1563 9.13315 16.2211 9.03237L20.75 1.9884C20.8148 1.88762 20.901 1.82554 21.0086 1.80216Z" fill="white"/>
</g>
<path fill-rule="evenodd" clip-rule="evenodd" d="M28.0572 60.9462C42.6545 60.9462 54.4879 49.1128 54.4879 34.5155C54.4879 19.9182 42.6545 8.08476 28.0572 8.08476C13.4599 8.08476 1.62651 19.9182 1.62651 34.5155C1.62651 49.1128 13.4599 60.9462 28.0572 60.9462ZM28.0572 62.5727C43.5528 62.5727 56.1145 50.0111 56.1145 34.5155C56.1145 19.0199 43.5528 6.45825 28.0572 6.45825C12.5616 6.45825 3.34579e-07 19.0199 3.34579e-07 34.5155C3.34579e-07 50.0111 12.5616 62.5727 28.0572 62.5727Z" fill="white"/>
<defs>
<clipPath id="clip0_13_1110">
<rect width="13.012" height="16.2651" fill="white" transform="matrix(-0.212371 -0.977189 -0.977189 0.212371 31.2866 12.7152)"/>
</clipPath>
</defs>
</svg>
