<svg width="20" height="20" viewBox="0 0 20 20" fill="none" xmlns="http://www.w3.org/2000/svg">
<path d="M10.9121 16.836L10.9121 15.2539C10.9121 15.1641 10.873 15.0782 10.8047 15.0176L5.87695 10.7422L16.875 10.7422C16.9609 10.7422 17.0313 10.6719 17.0313 10.586L17.0313 9.4141C17.0313 9.32817 16.9609 9.25785 16.875 9.25785L5.87695 9.25785L10.8047 4.98246C10.873 4.92387 10.9121 4.83793 10.9121 4.74613L10.9121 3.1641C10.9121 3.03129 10.7539 2.95902 10.6543 3.04691L3.18359 9.52934C3.11599 9.58793 3.06178 9.66038 3.02462 9.74176C2.98746 9.82314 2.96824 9.91155 2.96824 10.001C2.96824 10.0905 2.98746 10.1789 3.02462 10.2603C3.06178 10.3417 3.11599 10.4141 3.18359 10.4727L10.6543 16.9532C10.7559 17.0411 10.9121 16.9688 10.9121 16.836Z" fill="white"/>
</svg>
